<svg xmlns="http://www.w3.org/2000/svg" width="24" height="24" fill="none"><mask id="a" width="24" height="24" x="0" y="0" maskUnits="userSpaceOnUse" style="mask-type:alpha"><path fill="#D9D9D9" d="M0 0h24v24H0z"/></mask><g mask="url(#a)"><path fill="#7C86FF" d="M11 19.475 6 16.6a1.948 1.948 0 0 1-1-1.725v-5.75A1.948 1.948 0 0 1 6 7.4l5-2.875c.317-.183.65-.275 1-.275s.683.092 1 .275L18 7.4a1.948 1.948 0 0 1 1 1.725v5.75a1.948 1.948 0 0 1-1 1.725l-5 2.875c-.317.183-.65.275-1 .275s-.683-.092-1-.275Zm0-2.3v-4.6L7 10.25v4.625l4 2.3Zm2 0 4-2.3V10.25l-4 2.325v4.6ZM3 8a.968.968 0 0 1-.712-.287A.968.968 0 0 1 2 7V4c0-.55.196-1.02.587-1.413A1.926 1.926 0 0 1 4 2h3c.283 0 .52.096.713.288.191.191.287.429.287.712s-.096.52-.287.712A.968.968 0 0 1 7 4H4v3c0 .283-.096.52-.288.713A.968.968 0 0 1 3 8Zm1 14c-.55 0-1.02-.196-1.413-.587A1.926 1.926 0 0 1 2 20v-3c0-.283.096-.52.288-.712A.967.967 0 0 1 3 16c.283 0 .52.096.712.288.192.191.288.429.288.712v3h3c.283 0 .52.096.713.288.191.191.287.429.287.712s-.096.52-.287.712A.967.967 0 0 1 7 22H4Zm16 0h-3a.968.968 0 0 1-.712-.288A.968.968 0 0 1 16 21c0-.283.096-.52.288-.712A.968.968 0 0 1 17 20h3v-3c0-.283.096-.52.288-.712A.968.968 0 0 1 21 16c.283 0 .52.096.712.288.192.191.288.429.288.712v3c0 .55-.196 1.02-.587 1.413A1.926 1.926 0 0 1 20 22Zm0-15V4h-3a.968.968 0 0 1-.712-.288A.967.967 0 0 1 16 3c0-.283.096-.52.288-.712A.968.968 0 0 1 17 2h3c.55 0 1.02.196 1.413.587C21.803 2.98 22 3.45 22 4v3c0 .283-.096.52-.288.713A.968.968 0 0 1 21 8a.968.968 0 0 1-.712-.287A.967.967 0 0 1 20 7Zm-8 3.85 3.95-2.325L12 6.25 8.05 8.525 12 10.85Z"/></g></svg>